<svg width="61" height="56" viewBox="0 0 61 56" fill="none" xmlns="http://www.w3.org/2000/svg">
<path fill-rule="evenodd" clip-rule="evenodd" d="M58.3307 0.257779C58.8489 -0.00813548 59.4823 0.016541 59.958 0.320884C60.4429 0.625227 60.6853 1.15718 60.5822 1.68336L51.4912 48.2945C51.4123 48.7057 51.1275 49.0623 50.7184 49.2624C50.3154 49.4626 49.8305 49.4818 49.4002 49.3173L29.9029 41.758L27.2392 53.8111C27.1059 54.4198 26.5363 54.8722 25.8483 54.9106C25.8278 54.9065 25.8039 54.907 25.7804 54.9076C25.7726 54.9077 25.7649 54.9079 25.7574 54.9079C25.109 54.9079 24.5271 54.5322 24.318 53.9702L18.4968 38.169L1.03588 32.902C0.469254 32.732 0.0692479 32.2769 0.00859363 31.7422C-0.0550437 31.2049 0.238853 30.6867 0.754059 30.4179L58.3307 0.257779ZM29.3849 38.5667L48.8397 46.1094L57.0337 4.10191L5.18452 31.2625L20.1758 35.7838C20.6272 35.9181 20.9849 36.2416 21.1333 36.6501L25.3879 48.2042L27.3 39.5566C27.388 39.1535 27.6758 38.8052 28.0819 38.6133C28.4849 38.4186 28.9637 38.4022 29.3849 38.5667Z" fill="white"/>
<path d="M60.0781 0.404974C59.483 -0.0640661 58.6066 -0.0307584 58.0532 0.482648L19.1701 36.5661C18.5869 37.1073 18.5869 37.9872 19.1701 38.5285C19.7533 39.0697 20.7015 39.0697 21.2848 38.5285L47.3934 14.3027L27.9846 39.5165C27.506 40.1383 27.6586 41.0071 28.3316 41.4511C28.5978 41.626 28.8998 41.7092 29.2019 41.7092C29.6656 41.7092 30.1291 41.5067 30.4193 41.1291L60.3294 2.27021C60.778 1.68186 60.6704 0.871282 60.0781 0.404974Z" fill="white"/>
<path d="M35.756 41.9935C35.0894 41.5243 34.1408 41.6466 33.6348 42.2778L24.5435 53.6512C24.0434 54.2796 24.1798 55.1696 24.8496 55.6415C25.1223 55.832 25.4435 55.9258 25.7587 55.9258C26.2163 55.9258 26.674 55.7296 26.9708 55.3571L36.0622 43.9837C36.5622 43.3555 36.4258 42.4655 35.756 41.9935Z" fill="white"/>
</svg>
