<svg width="51" height="57" viewBox="0 0 51 57" fill="none" xmlns="http://www.w3.org/2000/svg">
<path fill-rule="evenodd" clip-rule="evenodd" d="M18.9473 42.2405C14.2047 34.4942 8.21044 23.6043 8.21044 18.0066C8.21044 8.56413 16.0076 0.885742 25.5961 0.885742C35.1846 0.885742 42.9818 8.56413 42.9818 18.0066C42.9818 23.6043 36.9875 34.4942 32.2449 42.2405C37.8717 42.6589 50.6756 44.1629 50.6756 49.1499C50.6756 54.0577 37.6765 56.2968 25.5846 56.2968C13.5042 56.2968 0.493687 54.0577 0.493687 49.1499C0.505169 44.1629 13.3205 42.6589 18.9473 42.2405ZM40.5818 18.0066C40.5818 9.8646 33.8526 3.23789 25.5961 3.23789C17.3282 3.23789 10.599 9.8646 10.599 18.0066C10.599 25.1196 22.1052 42.9642 25.5961 48.2113C29.087 42.9642 40.5818 25.1196 40.5818 18.0066ZM48.287 49.1386C48.287 50.767 40.2832 53.9334 25.5961 53.9334C10.909 53.9334 2.90517 50.7783 2.89369 49.1386C2.89369 47.8721 8.17599 45.1807 20.3483 44.4909C22.6334 48.1209 24.3559 50.7105 24.5971 50.9932C25.3664 51.8865 26.2736 51.4003 26.5837 50.9932C26.8133 50.6879 28.5473 48.1209 30.8325 44.4909C43.0047 45.1807 48.287 47.8834 48.287 49.1386Z" fill="white"/>
<path fill-rule="evenodd" clip-rule="evenodd" d="M25.5846 10.1211C21.5424 10.1211 18.2664 13.5662 18.2664 17.8171C18.2664 22.068 21.5424 25.5131 25.5846 25.5131C29.6269 25.5131 32.9028 22.068 32.9028 17.8171C32.9028 13.5662 29.6269 10.1211 25.5846 10.1211ZM25.5846 12.5502C28.3498 12.5502 30.593 14.9092 30.593 17.8171C30.593 20.725 28.3498 23.084 25.5846 23.084C22.8195 23.084 20.5763 20.725 20.5763 17.8171C20.5763 14.9092 22.8195 12.5502 25.5846 12.5502Z" fill="white"/>
</svg>
