<svg width="34" height="25" viewBox="0 0 34 25" fill="none" xmlns="http://www.w3.org/2000/svg">
<path d="M19.9936 24.5059C19.6277 24.5059 19.291 24.306 19.1157 23.9847L18.9869 23.7485C18.8667 23.5282 18.8335 23.2707 18.8957 23.0275C19.4808 20.74 20.2156 18.3328 21.1 15.8059C22.0333 13.1392 23.0333 10.4392 24.1 7.70586C25.1404 5.19677 26.1526 2.82812 27.1368 0.599922C27.2965 0.238425 27.6547 0.00585938 28.0499 0.00585938H32.75C33.3908 0.00585938 33.8663 0.600117 33.7254 1.22527C33.2076 3.52276 32.6658 5.91629 32.1 8.40586C31.5 11.2725 30.9333 14.1059 30.4 16.9059C29.99 19.3075 29.6314 21.5547 29.3243 23.6476C29.252 24.14 28.8304 24.5059 28.3327 24.5059H19.9936ZM1.19363 24.5059C0.82769 24.5059 0.490971 24.306 0.315738 23.9847L0.186921 23.7485C0.0667235 23.5282 0.0334778 23.2707 0.0956809 23.0275C0.680794 20.74 1.41557 18.3328 2.3 15.8059C3.23333 13.1392 4.23333 10.4392 5.3 7.70586C6.34035 5.19677 7.35262 2.82812 8.33679 0.599922C8.49646 0.238425 8.85468 0.00585938 9.24987 0.00585938H13.95C14.5908 0.00585938 15.0663 0.600117 14.9254 1.22527C14.4076 3.52276 13.8658 5.91629 13.3 8.40586C12.7 11.2725 12.1333 14.1059 11.6 16.9059C11.19 19.3075 10.8314 21.5547 10.5243 23.6476C10.452 24.14 10.0304 24.5059 9.53271 24.5059H1.19363Z" fill="white"/>
</svg>
